<?xml version="1.0" encoding="UTF-8"?>
<svg width="339px" height="104px" viewBox="0 0 339 104" version="1.1" xmlns="http://www.w3.org/2000/svg" xmlns:xlink="http://www.w3.org/1999/xlink">
    <!-- Generator: Sketch 44.1 (41455) - http://www.bohemiancoding.com/sketch -->
    <title>Group 29 Copy</title>
    <desc>Created with Sketch.</desc>
    <defs>
        <circle id="path-1" cx="52" cy="52" r="52"></circle>
    </defs>
    <g id="Colored" stroke="none" stroke-width="1" fill="none" fill-rule="evenodd">
        <g id="Desktop" transform="translate(-90.000000, -188.000000)">
            <g id="Group-29-Copy" transform="translate(90.000000, 188.000000)">
                <g id="Path-11">
                    <mask id="mask-2" fill="white">
                        <use xlink:href="#path-1"></use>
                    </mask>
                    <use id="Mask" fill="#24A3B5" xlink:href="#path-1"></use>
                    <circle id="Mask" stroke="#FFFFFF" stroke-width="3" opacity="0.76415308" mask="url(#mask-2)" cx="52" cy="52" r="42.5"></circle>
                    <polygon fill="#FFFFFF" opacity="0.228543931" mask="url(#mask-2)" points="7.84233592 97.1455615 107.586283 -2.14419379 36.8599513 -17.962088 4.57853454 0.537791361 -16.8323028 41.6440466"></polygon>
                    <path d="M62.657,37.766 C61.721662,36.4646602 60.5220073,35.417504 59.058,34.6245 C57.5939927,33.831496 55.8250104,33.435 53.751,33.435 C52.6936614,33.435 51.6160055,33.597665 50.518,33.923 C49.4199945,34.248335 48.4236711,34.7464966 47.529,35.4175 C46.6343289,36.0885034 45.9125027,36.9323282 45.3635,37.949 C44.8144973,38.9656717 44.54,40.1653264 44.54,41.548 C44.54,42.9306736 44.8043307,44.0693289 45.333,44.964 C45.8616693,45.8586711 46.5631623,46.6211635 47.4375,47.2515 C48.3118377,47.8818365 49.3081611,48.4003313 50.4265,48.807 C51.5448389,49.2136687 52.7139939,49.6203313 53.934,50.027 C55.4386742,50.5150024 56.9534924,51.0436638 58.4785,51.613 C60.0035076,52.1823362 61.3759939,52.9244954 62.596,53.8395 C63.8160061,54.7545046 64.8123295,55.913493 65.585,57.3165 C66.3576705,58.719507 66.744,60.4986559 66.744,62.654 C66.744,64.8093441 66.3271708,66.6698255 65.4935,68.2355 C64.6598292,69.8011745 63.5821733,71.0923283 62.2605,72.109 C60.9388267,73.1256718 59.4341751,73.8779976 57.7465,74.366 C56.0588249,74.8540024 54.3610085,75.098 52.653,75.098 C51.3516602,75.098 50.0503398,74.9658347 48.749,74.7015 C47.4476602,74.4371653 46.2073392,74.0406693 45.028,73.512 C43.8486608,72.9833307 42.7506718,72.3123374 41.734,71.499 C40.7173283,70.6856626 39.8226705,69.7503386 39.05,68.693 L42.832,65.887 C43.767338,67.4323411 45.0788249,68.7234948 46.7665,69.7605 C48.4541751,70.7975052 50.4366553,71.316 52.714,71.316 C53.8120055,71.316 54.9303276,71.1431684 56.069,70.7975 C57.2076724,70.4518316 58.2344954,69.9231702 59.1495,69.2115 C60.0645046,68.4998298 60.8168304,67.6255052 61.4065,66.5885 C61.9961696,65.5514948 62.291,64.3416736 62.291,62.959 C62.291,61.4543258 61.9961696,60.2038383 61.4065,59.2075 C60.8168304,58.2111617 60.0340049,57.3775034 59.058,56.7065 C58.0819951,56.0354966 56.963673,55.4763356 55.703,55.029 C54.442327,54.5816644 53.1206736,54.1343356 51.738,53.687 C50.3146596,53.2396644 48.9116736,52.7313362 47.529,52.162 C46.1463264,51.5926638 44.9060055,50.8505046 43.808,49.9355 C42.7099945,49.0204954 41.8255034,47.8920067 41.1545,46.55 C40.4834966,45.2079933 40.148,43.5610098 40.148,41.609 C40.148,39.5349896 40.5648292,37.7456742 41.3985,36.241 C42.2321708,34.7363258 43.3199933,33.4960049 44.662,32.52 C46.0040067,31.5439951 47.4883252,30.8323356 49.115,30.385 C50.7416748,29.9376644 52.3479921,29.714 53.934,29.714 C56.8620146,29.714 59.3629896,30.2324948 61.437,31.2695 C63.5110104,32.3065052 65.0766614,33.5366596 66.134,34.96 L62.657,37.766 Z" id="S" fill="#FFFFFF" mask="url(#mask-2)"></path>
                </g>
                <path d="M146.875,53.171 C146.875,54.4556731 147.094331,55.5523288 147.533,56.461 C147.971669,57.3696712 148.582663,58.1138304 149.366,58.6935 C150.149337,59.2731696 151.050162,59.6961653 152.0685,59.9625 C153.086838,60.2288347 154.191327,60.362 155.382,60.362 C156.666673,60.362 157.763329,60.2131682 158.672,59.9155 C159.580671,59.6178318 160.316997,59.2340023 160.881,58.764 C161.445003,58.2939976 161.852332,57.7535031 162.103,57.1425 C162.353668,56.5314969 162.479,55.9126698 162.479,55.286 C162.479,54.0013269 162.18917,53.0535031 161.6095,52.4425 C161.02983,51.8314969 160.395337,51.4006679 159.706,51.15 C158.515327,50.7113311 157.128841,50.2961686 155.5465,49.9045 C153.964159,49.5128314 152.013678,49.0036698 149.695,48.377 C148.253659,48.0009981 147.055171,47.5075031 146.0995,46.8965 C145.143829,46.2854969 144.384003,45.6040038 143.82,44.852 C143.255997,44.0999962 142.856501,43.3010042 142.6215,42.455 C142.386499,41.6089958 142.269,40.7473377 142.269,39.87 C142.269,38.1779915 142.621496,36.7131729 143.3265,35.4755 C144.031504,34.2378271 144.963661,33.2116707 146.123,32.397 C147.282339,31.5823293 148.598326,30.9791686 150.071,30.5875 C151.543674,30.1958314 153.031992,30 154.536,30 C156.290675,30 157.943492,30.2271644 159.4945,30.6815 C161.045508,31.1358356 162.408494,31.8173288 163.5835,32.726 C164.758506,33.6346712 165.690663,34.7548267 166.38,36.0865 C167.069337,37.4181733 167.414,38.9613246 167.414,40.716 L161.539,40.716 C161.382333,38.5539892 160.646007,37.0265045 159.33,36.1335 C158.013993,35.2404955 156.337677,34.794 154.301,34.794 C153.611663,34.794 152.90667,34.8644993 152.186,35.0055 C151.46533,35.1465007 150.807336,35.3814984 150.212,35.7105 C149.616664,36.0395016 149.123169,36.4859972 148.7315,37.05 C148.339831,37.6140028 148.144,38.3189958 148.144,39.165 C148.144,40.3556726 148.512163,41.28783 149.2485,41.9615 C149.984837,42.63517 150.948327,43.1443316 152.139,43.489 C152.264334,43.5203335 152.757829,43.6534988 153.6195,43.8885 C154.481171,44.1235012 155.444661,44.3819986 156.51,44.664 C157.575339,44.9460014 158.617162,45.2201653 159.6355,45.4865 C160.653838,45.7528347 161.382331,45.948666 161.821,46.074 C162.917672,46.4186684 163.873329,46.8886637 164.688,47.484 C165.502671,48.0793363 166.184164,48.7608295 166.7325,49.5285 C167.280836,50.2961705 167.688165,51.1186623 167.9545,51.996 C168.220835,52.8733377 168.354,53.7506623 168.354,54.628 C168.354,56.5080094 167.970171,58.1138267 167.2025,59.4455 C166.434829,60.7771733 165.42434,61.8659958 164.171,62.712 C162.91766,63.5580042 161.492008,64.1768314 159.894,64.5685 C158.295992,64.9601686 156.666675,65.156 155.006,65.156 C153.094657,65.156 151.293008,64.9210023 149.601,64.451 C147.908992,63.9809976 146.43634,63.2603382 145.183,62.289 C143.92966,61.3176618 142.927004,60.0721743 142.175,58.5525 C141.422996,57.0328257 141.031333,55.2390103 141,53.171 L146.875,53.171 Z M172.866,40.058 L177.942,40.058 L177.942,43.348 L178.036,43.348 C178.788004,41.9379929 179.83766,40.9275031 181.185,40.3165 C182.53234,39.7054969 183.989326,39.4 185.556,39.4 C187.467343,39.4 189.135826,39.73683 190.5615,40.4105 C191.987174,41.08417 193.169995,42.0084941 194.11,43.1835 C195.050005,44.3585059 195.754998,45.7293255 196.225,47.296 C196.695002,48.8626745 196.93,50.5389911 196.93,52.325 C196.93,53.9543415 196.718502,55.536659 196.2955,57.072 C195.872498,58.607341 195.230171,59.9624941 194.3685,61.1375 C193.506829,62.3125059 192.418007,63.2524965 191.102,63.9575 C189.785993,64.6625035 188.235009,65.015 186.449,65.015 C185.665663,65.015 184.882337,64.9445007 184.099,64.8035 C183.315663,64.6624993 182.56367,64.4353349 181.843,64.122 C181.12233,63.8086651 180.456503,63.4091691 179.8455,62.9235 C179.234497,62.4378309 178.725335,61.8660033 178.318,61.208 L178.224,61.208 L178.224,73.334 L172.866,73.334 L172.866,40.058 Z M191.572,52.231 C191.572,51.1343278 191.431001,50.0690052 191.149,49.035 C190.866999,48.0009948 190.444003,47.084504 189.88,46.2855 C189.315997,45.486496 188.611004,44.8441691 187.765,44.3585 C186.918996,43.8728309 185.947672,43.63 184.851,43.63 C182.594989,43.63 180.895172,44.4133255 179.7515,45.98 C178.607828,47.5466745 178.036,49.6303203 178.036,52.231 C178.036,53.4530061 178.184832,54.5888281 178.4825,55.6385 C178.780168,56.6881719 179.226664,57.5889962 179.822,58.341 C180.417336,59.0930038 181.130163,59.6883311 181.9605,60.127 C182.790837,60.5656689 183.754328,60.785 184.851,60.785 C186.073006,60.785 187.106996,60.5343358 187.953,60.033 C188.799004,59.5316642 189.496164,58.881504 190.0445,58.0825 C190.592836,57.283496 190.984499,56.3748384 191.2195,55.3565 C191.454501,54.3381616 191.572,53.2963387 191.572,52.231 Z M221.793,58.952 C221.793,59.6100033 221.879166,60.0799986 222.0515,60.362 C222.223834,60.6440014 222.560664,60.785 223.062,60.785 L223.626,60.785 C223.845334,60.785 224.095999,60.753667 224.378,60.691 L224.378,64.404 C224.189999,64.466667 223.947168,64.5371663 223.6495,64.6155 C223.351832,64.6938337 223.046335,64.764333 222.733,64.827 C222.419665,64.889667 222.106335,64.9366665 221.793,64.968 C221.479665,64.9993335 221.213334,65.015 220.994,65.015 C219.897328,65.015 218.98867,64.7956689 218.268,64.357 C217.54733,63.9183311 217.077334,63.1506721 216.858,62.054 C215.792661,63.0880052 214.484508,63.8399976 212.9335,64.31 C211.382492,64.7800024 209.886341,65.015 208.445,65.015 C207.348328,65.015 206.298672,64.8661682 205.296,64.5685 C204.293328,64.2708318 203.408171,63.8321696 202.6405,63.2525 C201.872829,62.6728304 201.261836,61.9365045 200.8075,61.0435 C200.353164,60.1504955 200.126,59.1086726 200.126,57.918 C200.126,56.4139925 200.400164,55.1920047 200.9485,54.252 C201.496836,53.3119953 202.217496,52.5756693 203.1105,52.043 C204.003504,51.5103307 205.006161,51.1265012 206.1185,50.8915 C207.230839,50.6564988 208.350994,50.476334 209.479,50.351 C210.450338,50.1629991 211.374662,50.0298337 212.252,49.9515 C213.129338,49.8731663 213.90483,49.7400009 214.5785,49.552 C215.25217,49.3639991 215.784831,49.0741686 216.1765,48.6825 C216.568169,48.2908314 216.764,47.7033373 216.764,46.92 C216.764,46.2306632 216.599502,45.6666689 216.2705,45.228 C215.941498,44.7893311 215.534169,44.4525012 215.0485,44.2175 C214.562831,43.9824988 214.022336,43.8258337 213.427,43.7475 C212.831664,43.6691663 212.267669,43.63 211.735,43.63 C210.230992,43.63 208.993338,43.9433302 208.022,44.57 C207.050662,45.1966698 206.502334,46.1679934 206.377,47.484 L201.019,47.484 C201.113,45.9173255 201.488997,44.6170052 202.147,43.583 C202.805003,42.5489948 203.643162,41.7186698 204.6615,41.092 C205.679838,40.4653302 206.831327,40.0266679 208.116,39.776 C209.400673,39.5253321 210.71666,39.4 212.064,39.4 C213.254673,39.4 214.429661,39.5253321 215.589,39.776 C216.748339,40.0266679 217.790162,40.4339972 218.7145,40.998 C219.638838,41.5620028 220.382997,42.2904955 220.947,43.1835 C221.511003,44.0765045 221.793,45.1653269 221.793,46.45 L221.793,58.952 Z M216.435,52.184 C215.620329,52.7166693 214.617673,53.0378328 213.427,53.1475 C212.236327,53.2571672 211.045673,53.4216656 209.855,53.641 C209.290997,53.7350005 208.742669,53.8681658 208.21,54.0405 C207.677331,54.2128342 207.207335,54.4478318 206.8,54.7455 C206.392665,55.0431682 206.071501,55.4348309 205.8365,55.9205 C205.601499,56.4061691 205.484,56.9936632 205.484,57.683 C205.484,58.2783363 205.656332,58.7796646 206.001,59.187 C206.345668,59.5943354 206.760831,59.9154988 207.2465,60.1505 C207.732169,60.3855012 208.26483,60.5499995 208.8445,60.644 C209.42417,60.7380005 209.948998,60.785 210.419,60.785 C211.014336,60.785 211.656663,60.7066674 212.346,60.55 C213.035337,60.3933325 213.685497,60.1270019 214.2965,59.751 C214.907503,59.3749981 215.416665,58.8971696 215.824,58.3175 C216.231335,57.7378304 216.435,57.0250042 216.435,56.179 L216.435,52.184 Z M227.574,40.058 L232.603,40.058 L232.603,44.758 L232.697,44.758 C232.853667,44.0999967 233.159164,43.4576698 233.6135,42.831 C234.067836,42.2043302 234.616163,41.6325026 235.2585,41.1155 C235.900837,40.5984974 236.613663,40.1833349 237.397,39.87 C238.180337,39.5566651 238.979329,39.4 239.794,39.4 C240.42067,39.4 240.851499,39.4156665 241.0865,39.447 C241.321501,39.4783335 241.564332,39.5096665 241.815,39.541 L241.815,44.711 C241.438998,44.648333 241.055169,44.5935002 240.6635,44.5465 C240.271831,44.4994998 239.888002,44.476 239.512,44.476 C238.603329,44.476 237.749504,44.6561649 236.9505,45.0165 C236.151496,45.3768351 235.454336,45.9094965 234.859,46.6145 C234.263664,47.3195035 233.793668,48.1889948 233.449,49.223 C233.104332,50.2570052 232.932,51.4476599 232.932,52.795 L232.932,64.357 L227.574,64.357 L227.574,40.058 Z M244.259,30.799 L249.617,30.799 L249.617,49.881 L259.299,40.058 L265.879,40.058 L256.573,48.988 L266.772,64.357 L260.239,64.357 L252.813,52.56 L249.617,55.662 L249.617,64.357 L244.259,64.357 L244.259,30.799 Z M299.39,64.357 L295.63,64.357 L294.737,60.409 C293.170325,62.1950089 291.603675,63.4326632 290.037,64.122 C288.470325,64.8113368 286.668677,65.156 284.632,65.156 C282.125321,65.156 279.877177,64.693838 277.8875,63.7695 C275.897823,62.845162 274.213674,61.584008 272.835,59.986 C271.456326,58.387992 270.398837,56.5236773 269.6625,54.393 C268.926163,52.2623227 268.558,49.9906787 268.558,47.578 C268.558,45.1966548 268.926163,42.9406773 269.6625,40.81 C270.398837,38.6793227 271.456326,36.815008 272.835,35.217 C274.213674,33.618992 275.897823,32.3500047 277.8875,31.41 C279.877177,30.4699953 282.125321,30 284.632,30 C286.449342,30 288.180492,30.2428309 289.8255,30.7285 C291.470508,31.2141691 292.935327,31.9348286 294.22,32.8905 C295.504673,33.8461714 296.569996,35.0446595 297.416,36.486 C298.262004,37.9273405 298.794666,39.5879906 299.014,41.468 L293.28,41.468 C293.123333,40.3713278 292.786503,39.4078375 292.2695,38.5775 C291.752497,37.7471625 291.102337,37.0500028 290.319,36.486 C289.535663,35.9219972 288.658338,35.4990014 287.687,35.217 C286.715662,34.9349986 285.697339,34.794 284.632,34.794 C282.845991,34.794 281.30284,35.1543297 280.0025,35.875 C278.70216,36.5956703 277.644671,37.5591606 276.83,38.7655 C276.015329,39.9718394 275.412169,41.342659 275.0205,42.878 C274.628831,44.413341 274.433,45.979992 274.433,47.578 C274.433,49.176008 274.628831,50.742659 275.0205,52.278 C275.412169,53.813341 276.015329,55.1841606 276.83,56.3905 C277.644671,57.5968394 278.70216,58.5603297 280.0025,59.281 C281.30284,60.0016703 282.845991,60.362 284.632,60.362 C286.136008,60.3933335 287.467661,60.1975021 288.627,59.7745 C289.786339,59.3514979 290.765496,58.740504 291.5645,57.9415 C292.363504,57.142496 292.966665,56.1633391 293.374,55.004 C293.781335,53.8446609 294.000667,52.560007 294.032,51.15 L285.102,51.15 L285.102,46.685 L299.39,46.685 L299.39,64.357 Z M305.171,30.799 L310.529,30.799 L310.529,35.875 L305.171,35.875 L305.171,30.799 Z M305.171,40.058 L310.529,40.058 L310.529,64.357 L305.171,64.357 L305.171,40.058 Z M338.823,63.088 C338.823,66.7540183 337.796844,69.4878243 335.7445,71.2895 C333.692156,73.0911757 330.739019,73.992 326.885,73.992 C325.662994,73.992 324.433173,73.8666679 323.1955,73.616 C321.957827,73.3653321 320.829838,72.9423363 319.8115,72.347 C318.793162,71.7516637 317.939337,70.9683382 317.25,69.997 C316.560663,69.0256618 316.153334,67.835007 316.028,66.425 L321.386,66.425 C321.542667,67.1770038 321.808998,67.7879976 322.185,68.258 C322.561002,68.7280023 323.007497,69.0961653 323.5245,69.3625 C324.041503,69.6288347 324.61333,69.8011663 325.24,69.8795 C325.86667,69.9578337 326.524663,69.997 327.214,69.997 C329.376011,69.997 330.958328,69.4643387 331.961,68.399 C332.963672,67.3336613 333.465,65.7983434 333.465,63.793 L333.465,60.08 L333.371,60.08 C332.618996,61.4273401 331.59284,62.4769962 330.2925,63.229 C328.99216,63.9810038 327.590008,64.357 326.086,64.357 C324.143324,64.357 322.490507,64.02017 321.1275,63.3465 C319.764493,62.67283 318.636504,61.7485059 317.7435,60.5735 C316.850496,59.3984941 316.200335,58.043341 315.793,56.508 C315.385665,54.972659 315.182,53.3276754 315.182,51.573 C315.182,49.9436585 315.432664,48.392674 315.934,46.92 C316.435336,45.447326 317.155995,44.1548389 318.096,43.0425 C319.036005,41.9301611 320.187493,41.0450033 321.5505,40.387 C322.913507,39.7289967 324.456658,39.4 326.18,39.4 C327.715341,39.4 329.125327,39.7211635 330.41,40.3635 C331.694673,41.0058365 332.681663,42.0163264 333.371,43.395 L333.465,43.395 L333.465,40.058 L338.823,40.058 L338.823,63.088 Z M326.932,60.127 C328.122673,60.127 329.133163,59.8841691 329.9635,59.3985 C330.793837,58.9128309 331.467497,58.270504 331.9845,57.4715 C332.501503,56.672496 332.877499,55.7638384 333.1125,54.7455 C333.347501,53.7271616 333.465,52.7010052 333.465,51.667 C333.465,50.6329948 333.339668,49.6303382 333.089,48.659 C332.838332,47.6876618 332.454503,46.8260038 331.9375,46.074 C331.420497,45.3219962 330.746837,44.7266689 329.9165,44.288 C329.086163,43.8493311 328.091339,43.63 326.932,43.63 C325.741327,43.63 324.738671,43.8806642 323.924,44.382 C323.109329,44.8833358 322.451336,45.533496 321.95,46.3325 C321.448664,47.131504 321.088334,48.0401616 320.869,49.0585 C320.649666,50.0768384 320.54,51.0873283 320.54,52.09 C320.54,53.0926717 320.665332,54.0718286 320.916,55.0275 C321.166668,55.9831714 321.550497,56.8369962 322.0675,57.589 C322.584503,58.3410038 323.242496,58.9519976 324.0415,59.422 C324.840504,59.8920023 325.803994,60.127 326.932,60.127 Z" id="SparkGig" fill="#FFFFFF"></path>
            </g>
        </g>
    </g>
</svg>